<?xml version="1.0" encoding="UTF-8"?>
<svg width="40px" height="40px" viewBox="0 0 40 40" version="1.1" xmlns="http://www.w3.org/2000/svg" xmlns:xlink="http://www.w3.org/1999/xlink">
    <title>编组 11</title>
    <g id="页面-1" stroke="none" stroke-width="1" fill="none" fill-rule="evenodd">
        <g id="快速专题-wap2" transform="translate(-24.000000, -2366.000000)">
            <g id="标题备份-5" transform="translate(0.000000, 2342.000000)">
                <g id="编组-11" transform="translate(24.000000, 24.000000)">
                    <rect id="矩形" x="0" y="0" width="40" height="40"></rect>
                    <path d="M29.1523319,12.3827983 L40.9497695,26.5397234 C41.4801156,27.1761387 41.3941295,28.1219858 40.7577142,28.6523319 C40.4881417,28.8769757 40.1483423,29 39.7974376,29 L16.2025624,29 C15.3741353,29 14.7025624,28.3284271 14.7025624,27.5 C14.7025624,27.1490952 14.8255867,26.8092959 15.0502305,26.5397234 L26.8476681,12.3827983 C27.3780142,11.746383 28.3238613,11.6603969 28.9602766,12.190743 C29.0299712,12.2488218 29.0942531,12.3131037 29.1523319,12.3827983 Z" id="三角形备份" fill="#000000" opacity="0.5" transform="translate(28.000000, 20.000000) rotate(90.000000) translate(-28.000000, -20.000000) "></path>
                    <path d="M18.1523319,12.3827983 L29.9497695,26.5397234 C30.4801156,27.1761387 30.3941295,28.1219858 29.7577142,28.6523319 C29.4881417,28.8769757 29.1483423,29 28.7974376,29 L5.20256242,29 C4.37413529,29 3.70256242,28.3284271 3.70256242,27.5 C3.70256242,27.1490952 3.82558675,26.8092959 4.0502305,26.5397234 L15.8476681,12.3827983 C16.3780142,11.746383 17.3238613,11.6603969 17.9602766,12.190743 C18.0299712,12.2488218 18.0942531,12.3131037 18.1523319,12.3827983 Z" id="三角形" fill="#000000" transform="translate(17.000000, 20.000000) rotate(90.000000) translate(-17.000000, -20.000000) "></path>
                </g>
            </g>
        </g>
    </g>
</svg>