<svg xmlns="http://www.w3.org/2000/svg" viewBox="0 0 20 24" class="design-iconfont">
  <path d="M10.0000144,12.5714286 C11.6244063,12.5714286 12.9411765,11.2922216 12.9411765,9.71435547 C12.9411765,8.13637768 11.6244063,6.85714286 10.0000144,6.85714286 C8.37570863,6.85714286 7.05882353,8.13637768 7.05882353,9.71435547 C7.05882353,11.2922216 8.37570863,12.5714286 10.0000144,12.5714286 L10.0000144,12.5714286 Z M2.928555,16.9701119 C1.05426457,15.1112505 0,12.5808154 0,9.94113208 C0,7.3014487 1.05426457,4.77104291 2.928555,2.91215222 C6.83367588,-0.970717406 13.1658554,-0.970717406 17.0709762,2.91215222 C18.9454718,4.7711308 20,7.30165378 20,9.94160083 C20,12.5815186 18.9454718,15.1121587 17.0709762,16.9711373 L9.99972167,24 L2.928555,16.9701119 Z" fill="#FFF" fill-rule="evenodd"/>
</svg>
